<?xml version="1.0" standalone="yes"?>
<svg xmlns="http://www.w3.org/2000/svg" width="420" height="594">
<path style="fill:#010101; stroke:none;" d="M0 0L0 594L420 594L420 290C416.005 292.778 412.606 296.127 408 297.931C405.23 299.015 399.927 299.155 398.028 301.6C395.502 304.851 397.428 311.107 396.03 315C394.851 318.285 391.683 321.392 391.696 325C391.718 331.257 398.156 339.585 399.846 346C402.146 354.731 400.07 365.922 402.693 373.83C404.554 379.441 411.525 383.272 414.095 389C420.767 403.869 405.835 416.32 394 422.241C366.103 436.198 337.606 430 308 430C298.239 430 283.213 427.27 274.228 431.728C270.218 433.717 270.197 440.243 268.768 444C266.065 451.105 261.56 456.795 256 461.907C241.341 475.385 220.796 476 202 476C166.395 476 130.68 475 95 475C76.7583 475 59.4629 474.737 45 461.826C33.2198 451.31 24.5266 435.164 25.0432 419C25.2555 412.359 30.0225 403.344 28.0162 397.015C24.234 385.083 2.44071 381.574 5.40818 365.004C6.24307 360.342 11.5158 358.525 12.6821 353.985C14.1311 348.346 13.3425 341.829 14.4606 336C17.2035 321.7 24.197 307.672 34.0903 297C39.4199 291.251 45.3323 286.202 52 282.066C56.1672 279.48 62.1755 277.853 65.1566 273.787C70.5775 266.393 72.7392 255.911 77.865 248C90.7318 228.142 110.708 211.85 133 203.695C149.81 197.546 167.081 194.834 185 196.09C191.93 196.575 202.295 202.08 208.91 200.223C213.43 198.954 221.54 191.446 225.681 188.471C229.524 185.709 226.765 179.873 226.599 176C226.361 170.445 228.67 165.286 232.468 161.301C239.482 153.94 247.753 158.453 254.566 153.958C257.522 152.009 257.235 146.985 258.533 144C261.001 138.328 265.98 133.378 272 131.638C279.559 129.453 288.038 136.956 293.907 134.758C302.884 131.398 304.764 119.991 317 121.2C325.693 122.058 328.964 131.725 336.17 133.122C340.376 133.937 345.737 129.069 350 128.329C363.651 125.957 373.319 137.578 375 150C385.343 149.971 394.991 148.761 402.211 158.093C407.703 165.193 402.84 174.495 407.028 180.49C409.308 183.753 416.401 185.504 420 187L420 0L0 0z"/>
<path style="fill:#f2f6f9; stroke:none;" d="M5 369L6 369L6 363L7 363C11.7624 372.746 21.38 378.599 22 391C35.0762 399.717 21.566 412.264 25 426C30.1803 446.721 41.1029 465.701 63 473C78.8151 478.272 101.522 475 119 475L162 475C168.042 475 176.167 473.542 182 475C196.417 478.604 220.881 477.53 235 474C247.234 470.941 262.713 460.689 268 448C269.872 443.507 273.299 431.26 272 431L272 430C283.341 431.402 295.499 430 307 430C327.521 430 348.233 432.222 367 421.905C383.812 412.664 394.286 391.4 413 386C410.438 381.568 405.205 378.322 403.198 373.83C401.726 370.537 403.155 365.569 402.91 362C402.476 355.652 401.026 349.108 399.29 343C397.754 337.595 392.148 330.346 392.209 325C392.242 322.098 394.546 319.57 395.633 317C397.514 312.555 395.112 303.966 399.318 301.013C405.941 296.363 415.871 298.512 419.397 288.999C423.302 278.463 420 260.268 420 249L420 207C420 201.603 421.576 193.221 419.397 188.213C417.065 182.856 408.734 184.22 406.618 178.867C404.894 174.505 407.104 168.804 405.696 164C401.314 149.05 387.388 149.897 375 150C373.89 136.428 364.091 126.431 350 128.185C345.812 128.707 340.159 133.486 336.17 132.474C326.207 129.947 324.011 118.548 311 121.529C303.06 123.349 299.557 132.912 292.96 134.324C289.955 134.967 286.816 132.28 284 131.557C278.228 130.076 271.032 130.678 266.015 133.97C258.427 138.948 260.344 148.683 254.566 153.357C246.984 159.493 236.636 153.143 229.563 164.039C224.556 171.753 229.642 178.393 227.227 185.775C226.248 188.769 212.854 197.477 209.83 199.223C204.469 202.319 192.947 196.765 187 196.171C171.729 194.644 154.554 195.865 140 200.862C115.15 209.394 93.3285 223.914 78.5193 246C72.9518 254.303 70.7147 266.379 64.49 273.787C57.4982 282.108 44.0569 285.855 36.0147 294.004C25.111 305.052 17.3901 319.727 14.4606 335C13.3404 340.84 14.1169 347.34 12.6821 352.996C11.0045 359.61 5.09083 361.31 5 369z"/>
<path style="fill:#ebca1a; stroke:none;" d="M315 142L302 164L278 152L274 178L248 176L254 202L230 209L258 231C262.788 170.831 347.984 150.465 374.332 208C383.58 228.195 382.425 251.93 368.761 270C361.746 279.277 343.558 286.296 345 298L376 308L375 282L401 279L389 255L412 242L412 241C407.731 237.835 393.321 229.738 393.458 223.961C393.62 217.117 403.336 209.333 406 203L381 197L386 170L360 175L354 149L332.09 161.13L315 142z"/>
<path style="fill:#f1e7aa; stroke:none;" d="M314 143L315 144L314 143M316 143L317 144L316 143M317 144L318 145L317 144M312 146L313 147L312 146M311 147L312 148L311 147M320 148L321 149L320 148M310 149L311 150L310 149M352 149L353 150L352 149M350 150L351 151L350 150M349 151L350 152L349 151M354.333 151.667L354.667 152.333L354.333 151.667M277.333 152.667L277.667 153.333L277.333 152.667M279 152L280 153L279 152M308 152L309 153L308 152M323 152L324 153L323 152M347 152L348 153L347 152M281 153L282 154L281 153M324 153L325 154L324 153M346 153L347 154L346 153M283 154L284 155L283 154M344 154L345 155L344 154M355 154L355 157L356 157L355 154M285 155L286 156L285 155M306 155L307 156L306 155M326 156L327 157L326 156M341 156L342 157L341 156M276 157L276 160L277 160L276 157M288 157L289 158L288 157M305 157L306 158L305 157M340 157L341 158L340 157M290 158L291 159L290 158M338 158L339 159L338 158M292 159L293 160L292 159M336 159L337 160L336 159M356.333 159.667L356.667 160.333L356.333 159.667M303 160L304 161L303 160M329 160L330 161L329 160M335 160L336 161L335 160M295 161L296 162L295 161M297 162L298 163L297 162M332 162L333 163L332 162M299 163L300 164L299 163M301 163L302 164L301 163M275 164L275 167L276 167L275 164M357.333 164.667L357.667 165.333L357.333 164.667M358.333 168.667L358.667 169.333L358.333 168.667M383.667 170.333L384.333 170.667L383.667 170.333M274 171L274 174L275 174L274 171M376 171L376 172L380 172L376 171M370 172L370 173L373 173L370 172M385.333 172.667L385.667 173.333L385.333 172.667M311 173L311 174L317 174L311 173M321 173L321 174L328 174L321 173M359 173L360 174L359 173M364 173L364 174L367 174L364 173M306.667 174.333L307.333 174.667L306.667 174.333M331.667 174.333L332.333 174.667L331.667 174.333M360 174L361 175L360 174M247 178L248 178L251 176C248.588 174.645 247.568 175.351 247 178M302.667 175.333L303.333 175.667L302.667 175.333M334.667 175.333L335.333 175.667L334.667 175.333M257 176L257 177L263 177L257 176M299.667 176.333L300.333 176.667L299.667 176.333M338.667 176.333L339.333 176.667L338.667 176.333M269 177L269 178L274 178L269 177M296.667 177.333L297.333 177.667L296.667 177.333M341 177L342 178L341 177M384 177L384 180L385 180L384 177M294 178L295 179L294 178M344 178L345 179L344 178M292 179L293 180L292 179M317 179L317 180L321 180L317 179M346 179L347 180L346 179M248.333 180.667L248.667 181.333L248.333 180.667M290 180L291 181L290 180M309 180L309 181L312 181L309 180z"/>
<path style="fill:#ebca1a; stroke:none;" d="M276 244C263.845 192.945 339.111 170.184 361 217C333.955 188.489 281.121 199.998 281 244C307.809 247.391 327.262 260.709 341 284C348.135 281.901 353.875 277.316 358.96 271.999C389.784 239.767 368.574 182.053 323 180.039C302.24 179.122 281.077 188.924 271.373 208C266.649 217.287 257.15 245.771 276 244z"/>
<path style="fill:#f1e7aa; stroke:none;" d="M327 180L327 181L330 181L327 180M288 181L289 182L288 181M304.667 181.333L305.333 181.667L304.667 181.333M332.667 181.333L333.333 181.667L332.667 181.333M349 181L350 182L349 181M301 182L302 183L301 182M336.667 182.333L337.333 182.667L336.667 182.333M351 182L352 183L351 182M383 182L383 185L384 185L383 182M285 183L286 184L285 183M299 183L300 184L299 183M339 183L340 184L339 183M249.333 184.667L249.667 185.333L249.333 184.667M297 184L298 185L297 184M341 184L342 185L341 184M354 184L355 185L354 184M282 185L283 186L282 185M294 185L295 186L294 185M343 185L344 186L343 185M281 186L282 187L281 186M292 186L293 187L292 186M345 186L346 187L345 186M357 186L358 187L357 186M250.333 187.667L250.667 188.333L250.333 187.667M290 187L291 188L290 187M347 187L348 188L347 187M358 187L359 188L358 187M289 188L290 189L289 188M359 188L360 189L359 188M382 188L382 191L383 191L382 188M288 189L289 190L288 189M350 189L351 190L350 189M360 189L361 190L360 189M251.333 190.667L251.667 191.333L251.333 190.667M276 190L277 191L276 190M286 190L287 191L286 190M314 190L314 191L326 191L314 190M361 190L362 191L361 190M275 191L276 192L275 191M285 191L286 192L285 191M308 191L308 192L311 192L308 191M330.667 191.333L331.333 191.667L330.667 191.333M353 191L354 192L353 191M362 191L363 192L362 191M306 192L307 193L306 192M334 192L335 193L334 192M354 192L355 193L354 192M303 193L304 194L303 193M336 193L337 194L336 193M355 193L356 194L355 193M364 193L365 194L364 193M381.333 193.667L381.667 194.333L381.333 193.667M252.333 194.667L252.667 195.333L252.333 194.667M281 194L282 195L281 194M300.667 194.333L301.333 194.667L300.667 194.333M339 194L340 195L339 194M356 194L357 195L356 194M365 194L366 195L365 194M280 195L281 196L280 195M298 195L299 196L298 195M341 195L342 196L341 195M357 195L358 196L357 195M366 195L367 196L366 195M279 196L280 197L279 196M297 196L298 197L297 196M343 196L344 197L343 196M358 196L359 197L358 196M381.667 196.333L382.333 196.667L381.667 196.333M270 197L271 198L270 197M295 197L296 198L295 197M344 197L345 198L344 197M359 197L360 198L359 197M385 197L386 198L385 197M253.333 198.667L253.667 199.333L253.333 198.667M294 198L295 199L294 198M360 198L361 199L360 198M368 198L369 199L368 198M388.667 198.333L389.333 198.667L388.667 198.333M292 199L293 200L292 199M347 199L348 200L347 199M361 199L362 200L361 199M369 199L370 200L369 199M392.667 199.333L393.333 199.667L392.667 199.333M268 200L269 201L268 200M291 200L292 201L291 200M317 200L317 201L320 201L317 200M331 200L331 201L334 201L331 200M348 200L349 201L348 200M362 200L363 201L362 200M396.667 200.333L397.333 200.667L396.667 200.333M252.667 201.333L253.333 201.667L252.667 201.333M267 201L268 202L267 201M275 201L276 202L275 201M313.667 201.333L314.333 201.667L313.667 201.333M336.667 201.333L337.333 201.667L336.667 201.333M400 201L401 202L400 201M249.667 202.333L250.333 202.667L249.667 202.333M289 202L290 203L289 202M310.667 202.333L311.333 202.667L310.667 202.333M339.667 202.333L340.333 202.667L339.667 202.333M363 202L364 203L363 202M371 202L372 203L371 202M403.667 202.333L404.333 202.667L403.667 202.333M246.667 203.333L247.333 203.667L246.667 203.333M266 203L267 204L266 203M288 203L289 204L288 203M308 203L309 204L308 203M342.667 203.333L343.333 203.667L342.667 203.333M364 203L365 204L364 203M406 203L407 204L406 203M243.667 204.333L244.333 204.667L243.667 204.333M273 204L274 205L273 204M287 204L288 205L287 204M305 204L306 205L305 204M345 204L346 205L345 204M372 204L373 205L372 204M240.667 205.333L241.333 205.667L240.667 205.333M265 205L266 206L265 205M272 205L273 206L272 205M303 205L304 206L303 205M347 205L348 206L347 205M373 205L374 206L373 205M238 206L239 207L238 206M285 206L286 207L285 206M302 206L303 207L302 206M348 206L349 207L348 206M366 206L367 207L366 206M404 206L405 207L404 206M235 207L236 208L235 207M264 207L265 208L264 207M271 207L272 208L271 207M284 207L285 208L284 207M300 207L301 208L300 207M350 207L351 208L350 207M355 207L356 208L355 207M403 207L404 208L403 207M232 208L233 209L232 208M356 208L357 209L356 208M367 208L368 209L367 208M374 208L375 209L374 208M229 209L230 210L229 209M263 209L264 210L263 209M270 209L271 210L270 209M297 209L298 210L297 209M353 209L354 210L353 209M402 209L403 210L402 209M282 210L283 211L282 210M296 210L297 211L296 210M354 210L355 211L354 210M357 210L358 211L357 210M368 210L369 211L368 210M375 210L376 211L375 210M401 210L402 211L401 210M231 211L232 212L231 211M262.333 211.667L262.667 212.333L262.333 211.667M295 211L296 212L295 211M355 211L356 212L355 211M233 212L234 213L233 212M269 212L270 213L269 212M294 212L295 213L294 212M356 212L357 213L356 212M358 212L361 217L358 212M369 212L370 213L369 212M400 212L401 213L400 212M235 213L236 214L235 213M280 213L281 214L280 213M293 213L294 214L293 213z"/>
<path style="fill:#f2f6f9; stroke:none;" d="M358 213L359 214L358 213z"/>
<path style="fill:#f1e7aa; stroke:none;" d="M376 213L377 214L376 213M399 213L400 214L399 213M236 214L237 215L236 214M261 214L262 215L261 214M268 214L269 215L268 214M292 214L293 215L292 214z"/>
<path style="fill:#f2f6f9; stroke:none;" d="M359 214L360 215L359 214z"/>
<path style="fill:#f1e7aa; stroke:none;" d="M370.333 214.667L370.667 215.333L370.333 214.667M398 214L399 215L398 214M238 215L239 216L238 215M279 215L280 216L279 215M291 215L292 216L291 215M377 215L378 216L377 215M239 216L240 217L239 216M267 216L268 217L267 216M290 216L291 217L290 216M397 216L398 217L397 216M161 217L162 218L161 217z"/>
<path style="fill:#85b6e4; stroke:none;" d="M84 284L122 295L122 296C105.641 292.625 90.489 289.006 74 294.039C35.7684 305.709 27.3685 347.215 41 380C57.9184 372.848 60.8241 358.695 72.1736 346C87.1043 329.299 110.515 319.551 133 321.09C147.44 322.077 161.211 326.855 173 335.298C178.176 339.005 182.357 345.124 188 347.973C200.494 354.28 212.505 352.585 223.91 363.289C229.516 368.551 231.678 376.108 236.698 381.502C241.97 387.165 251.154 389.415 256.996 395.04C260.758 398.662 264.437 406.349 269.209 408.397C278.268 412.283 295.148 409 305 409C334.41 409 370.032 411.333 380.56 376C387.133 353.942 375.145 331.895 355 322.32C349.996 319.942 337.886 314.126 332.563 318.028C328.824 320.769 325.622 332.542 324 337L323 337C325.807 322.527 329.158 309.368 323.536 295C308.38 256.264 261.884 259.244 236 284C241.211 275.669 248.825 268.408 257 263C252.352 252.021 241.286 242.732 232 235.654C180.316 196.26 101.755 221.433 84 284z"/>
<path style="fill:#f1e7aa; stroke:none;" d="M187 217L188 218L187 217M241 217L242 218L241 217M260.333 217.667L260.667 218.333L260.333 217.667M371.333 217.667L371.667 218.333L371.333 217.667M242 218L243 219L242 218M278 218L279 219L278 218M378.333 218.667L378.667 219.333L378.333 218.667M266.333 219.667L266.667 220.333L266.333 219.667M288 219L289 220L288 219M395 219L396 220L395 219M147 220L148 221L147 220M277 220L278 221L277 220M394 220L395 221L394 220M246 221L247 222L246 221M259.333 221.667L259.667 222.333L259.333 221.667M372 221L373 222L372 221M140 222L141 223L140 222M286 222L287 223L286 222M265 223L265 226L266 226L265 223M276.333 223.667L276.667 224.333L276.333 223.667M379 223L379 226L380 226L379 223M392 223L393 224L392 223M285 224L286 225L285 224M251 225L252 226L251 225M373 225L373 228L374 228L373 225M392 225L393 226L392 225M131 226L132 227L131 226M252 226L253 227L252 226M258 226L258 231L259 231L258 226M284 226L285 227L284 226M393 226L394 227L393 226M129 227L130 228L129 227M253 227L254 228L253 227M394 227L395 228L394 227M127 228L128 229L127 228M254 228L255 229L254 228M275 228L275 231L276 231L275 228M283.333 228.667L283.667 229.333L283.333 228.667M255 229L256 230L255 229M256 230L257 231L256 230M398 230L399 231L398 230M122 231L123 232L122 231M257 231L258 232L257 231M264 231L264 238L265 238L264 231M282 231L283 232L282 231M380 231L380 238L381 238L380 231M399 231L400 232L399 231M119 233L120 234L119 233M281.333 234.667L281.667 235.333L281.333 234.667M403 234L404 235L403 234M231 235L232 236L231 235M404 235L405 236L404 235M407 237L408 238L407 237M408 238L409 239L408 238M280 239L280 245L285 245L285 244L281 244L280 239M409 239L410 240L409 239M275 240L275 243L276 243L275 240M373 241L373 244L374 244L373 241M267 242L268 243L267 242M107 243L108 244L107 243M268 243L269 244L268 243M379 243L379 246L380 246L379 243M409 243L410 244L409 243M269 244L270 245L269 244M272 244L272 245L276 245L272 244M407 244L408 245L407 244M289 245L289 246L292 246L289 245M294.667 246.333L295.333 246.667L294.667 246.333M372.333 246.667L372.667 247.333L372.333 246.667M404 246L405 247L404 246M298 247L299 248L298 247M402 247L403 248L402 247M300.667 248.333L301.333 248.667L300.667 248.333M401 248L402 249L401 248M303.667 249.333L304.333 249.667L303.667 249.333M378.333 249.667L378.667 250.333L378.333 249.667M399 249L400 250L399 249M306 250L307 251L306 250M371 250L372 251L371 250M397 250L398 251L397 250M308 251L309 252L308 251M99 252L100 253L99 252M249 252L250 253L249 252M310 252L311 253L310 252M394 252L395 253L394 252M250 253L251 254L250 253M312 253L313 254L312 253M370 253L371 254L370 253M377 253L378 254L377 253M392 253L393 254L392 253M251 254L252 255L251 254M314 254L315 255L314 254M315 255L316 256L315 255M376 255L377 256L376 255M389 255L390 256L389 255M369 256L370 257L369 256M318 257L319 258L318 257M390 257L391 258L390 257M254 258L255 259L254 258M368 258L369 259L368 258M375 258L376 259L375 258M94 259L95 260L94 259M321 259L322 260L321 259M391 259L392 260L391 259M322 260L323 261L322 260M367 260L368 261L367 260M374 260L375 261L374 260M93 261L94 262L93 261M323 261L324 262L323 261M392 261L393 262L392 261z"/>
<path style="fill:#010101; stroke:none;" d="M419 261L419 267L420 267L419 261z"/>
<path style="fill:#f1e7aa; stroke:none;" d="M366 262L367 263L366 262M373 262L374 263L373 262M365 263L366 264L365 263M393 263L394 264L393 263M91 264L92 265L91 264M278 264L278 265L281 265L278 264M372 264L373 265L372 264M364 265L365 266L364 265M394 265L395 266L394 265M266 266L267 267L266 266M363 266L364 267L363 266M371 266L372 267L371 266M262 267L263 268L262 267M370 267L371 268L370 267M395 267L396 268L395 267M259 268L260 269L259 268M330 268L331 269L330 268M396 268L397 269L396 268M257 269L258 270L257 269M331 269L332 270L331 269M361 269L362 270L361 269M369 269L370 270L369 269M255 270L256 271L255 270M301 270L302 271L301 270M332 270L333 271L332 270M360 270L361 271L360 270M368 270L369 271L368 270M359 271L360 272L359 271M251 272L252 273L251 272M358 272L359 273L358 272M398 272L399 273L398 272M249 273L250 274L249 273M334 273L335 274L334 273M357 273L358 274L357 273M335 274L336 275L335 274M356 274L357 275L356 274M365 274L366 275L365 274M399 274L400 275L399 274M246 275L247 276L246 275M355 275L356 276L355 275M364 275L365 276L364 275M336 276L337 277L336 276M354 276L355 277L354 276M363 276L364 277L363 276M400 276L401 277L400 276M311 277L312 278L311 277M337 277L338 278L337 277M362 277L363 278L362 277M239 278L240 279L239 278M242 278L243 279L242 278M361 278L362 279L361 278M401 278L402 279L401 278M338 279L339 280L338 279M350 279L351 280L350 279M360 279L361 280L360 279M398 279L398 280L401 280L398 279M314 280L315 281L314 280M348 280L349 281L348 280M359 280L360 281L359 280M389 280L389 281L393 281L389 280M339 281L340 282L339 281M347 281L348 282L347 281M358 281L359 282L358 281M380 281L380 282L384 282L380 281M84 282L85 283L84 282M236 282L236 284L238 282L236 282M345 282L346 283L345 282M375 282L375 292L376 292L375 282M340 283L341 284L340 283M343 283L344 284L343 283M355 283L356 284L355 283M317 284L318 285L317 284M341 284L342 285L341 284M354 284L355 285L354 284M352 285L353 286L352 285M96 286L97 287L96 286M351 286L352 287L351 286M100 287L101 288L100 287M349 287L350 288L349 287M347 288L348 289L347 288M107 289L108 290L107 289M345 289L346 290L345 289M343.333 290.667L343.667 291.333L343.333 290.667M85.6667 291.333L86.3333 291.667L85.6667 291.333M97.6667 291.333L98.3333 291.667L97.6667 291.333M113 291L114 292L113 291M80 292L81 293L80 292M75 293L76 294L75 293M110 293L111 294L110 293M72 294L73 295L72 294M115 294L116 295L115 294M344.333 294.667L344.667 295.333L344.333 294.667M119 295L120 296L119 295z"/>
<path style="fill:#f2f6f9; stroke:none;" d="M120.667 295.333L121.333 295.667L120.667 295.333z"/>
<path style="fill:#f1e7aa; stroke:none;" d="M123 296L124 297L123 296M324 297L325 298L324 297M346.667 298.333L347.333 298.667L346.667 298.333M62 299L63 300L62 299M350.667 299.333L351.333 299.667L350.667 299.333M354.667 300.333L355.333 300.667L354.667 300.333M325 301L326 302L325 301M357 301L358 302L357 301M376 301L374 308L374 309C377.828 308.18 377.714 303.974 376 301M359.667 302.333L360.333 302.667L359.667 302.333M56 303L57 304L56 303M362 303L363 304L362 303M364 304L365 305L364 304M366 305L367 306L366 305M326 306L327 307L326 306M368 306L369 307L368 306M371.667 307.333L372.333 307.667L371.667 307.333M45 314L46 315L45 314M340 317L341 318L340 317M326 319L327 320L326 319M122.667 321.333L123.333 321.667L122.667 321.333M135.667 321.333L136.333 321.667L135.667 321.333M40 322L41 323L40 322M114 322L115 323L114 322M144 322L145 323L144 322M105 324L106 325L105 324M154 325L155 326L154 325M360 325L361 326L360 325M157 326L158 327L157 326M363 327L364 328L363 327M324 329L325 330L324 329M89 331L90 332L89 331M326 331L327 332L326 331M87 332L88 333L87 332M169 332L170 333L169 332M325 333L326 334L325 333M370 333L371 334L370 333M176 337L177 338L176 337M322 337L323 338L322 337M79 338L80 339L79 338M177 338L178 339L177 338M118 342L119 343L118 342z"/>
<path style="fill:#85b6e4; stroke:none;" d="M76 381L100 388L100 389C88.4069 386.35 76.2051 383.638 65 389.277C43.4985 400.098 39.5541 430.556 58.0895 446.181C70.8715 456.955 88.4567 454 104 454L207 454C222.667 454 240.389 455.902 248.457 439C254.486 426.37 249.042 411.562 237 404.905C233.66 403.059 226.368 399.382 222.699 402.032C219.821 404.11 218.322 409.82 217 413L216 413C217.093 404.539 219.457 396.407 216.451 388C207.754 363.671 181.025 368.635 165 381L177 368C153.095 329.782 86.8599 334.08 76 381z"/>
<path style="fill:#f1e7aa; stroke:none;" d="M114 343L115 344L114 343M149 345L150 346L149 345M70 347L71 348L70 347M153 347L154 348L153 347M101 348L102 349L101 348M157 349L158 350L157 349M194.667 349.333L195.333 349.667L194.667 349.333M201 350L202 351L201 350M67 351L68 352L67 351M204 351L205 352L204 351M380 351L381 352L380 351M92 354L93 355L92 354M381 355L382 356L381 355M90 356L91 357L90 356M215 356L216 357L215 356M63 357L64 358L63 357M89 357L90 358L89 357M218 358L219 359L218 358M62 359L63 360L62 359M382 359L383 360L382 359M34 360L35 361L34 360M86 360L87 361L86 360M61 361L62 362L61 361M382 361L382 366L383 366L382 361M223 362L224 363L223 362M6 363L7 364L6 363z"/>
<path style="fill:#85b6e4; stroke:none;" d="M6 364C6.24111 375.318 12.9969 384.893 23 390C18.5316 379.253 15.9129 370.772 6 364z"/>
<path style="fill:#f1e7aa; stroke:none;" d="M174 364L175 365L174 364M59 365L60 366L59 365M226 365L227 366L226 365M81 367L82 368L81 367M11 368L12 369L11 368M6 370L7 371L6 370M14 370L15 371L14 370M56 370L57 371L56 370z"/>
<path style="fill:#f2f6f9; stroke:none;" d="M6.33333 371.667L6.66667 372.333L6.33333 371.667z"/>
<path style="fill:#f1e7aa; stroke:none;" d="M54 371L55 372L54 371M181 371L182 372L181 371M171 372L172 373L171 372z"/>
<path style="fill:#f2f6f9; stroke:none;" d="M7.33333 373.667L7.66667 374.333L7.33333 373.667z"/>
<path style="fill:#f1e7aa; stroke:none;" d="M170 373L171 374L170 373M174 374L175 375L174 374M8 375L9 376L8 375M168 375L169 376L168 375M233 375L234 376L233 375z"/>
<path style="fill:#f2f6f9; stroke:none;" d="M8 376L9 377L8 376z"/>
<path style="fill:#f1e7aa; stroke:none;" d="M9 377L10 378L9 377M17 377L18 378L17 377M209 377L210 378L209 377M234 377L235 378L234 377z"/>
<path style="fill:#f2f6f9; stroke:none;" d="M9 378L10 379L9 378M10 379L13 383L10 379z"/>
<path style="fill:#f1e7aa; stroke:none;" d="M43 379L44 380L43 379M165 379L166 380L165 379M167 379L168 380L167 379M11 380L12 381L11 380z"/>
<path style="fill:#f2f6f9; stroke:none;" d="M165 380L166 381L165 380z"/>
<path style="fill:#f1e7aa; stroke:none;" d="M12 381L13 382L12 381M164 381L165 382L164 381M378 381L379 382L378 381M19 382L20 383L19 382M85 382L86 383L85 382z"/>
<path style="fill:#f2f6f9; stroke:none;" d="M13 383L14 384L13 383M14 384L15 385L14 384z"/>
<path style="fill:#f1e7aa; stroke:none;" d="M20 384L21 385L20 384M91 384L92 385L91 384z"/>
<path style="fill:#f2f6f9; stroke:none;" d="M15 385L17 387L15 385z"/>
<path style="fill:#f1e7aa; stroke:none;" d="M16 385L17 386L16 385z"/>
<path style="fill:#85b6e4; stroke:none;" d="M411 385C405.831 390.059 399.484 392.761 394.171 397.39C388.932 401.954 385.333 408.128 380 412.7C365.884 424.802 349.318 430 331 430L331 431C354.989 431 379.99 432.229 400.985 417.996C411.562 410.826 420.563 396.851 411 385z"/>
<path style="fill:#f1e7aa; stroke:none;" d="M17 386L18 387L17 386M21 386L22 387L21 386M72 386L73 387L72 386M88 386L89 387L88 386M96 386L97 387L96 386M412 386L413 387L412 386M18 387L19 388L18 387z"/>
<path style="fill:#f2f6f9; stroke:none;" d="M413 387L414 388L413 387M19 388L20 389L19 388z"/>
<path style="fill:#f1e7aa; stroke:none;" d="M22 388L23 389L22 388M99 388L100 389L99 388M413 388L414 389L413 388z"/>
<path style="fill:#f2f6f9; stroke:none;" d="M20 389L21 390L20 389z"/>
<path style="fill:#f1e7aa; stroke:none;" d="M21 389L22 390L21 389M64 389L65 390L64 389z"/>
<path style="fill:#f2f6f9; stroke:none;" d="M414.333 389.667L414.667 390.333L414.333 389.667z"/>
<path style="fill:#f1e7aa; stroke:none;" d="M23 390L24 391L23 390M405 390L406 391L405 390M217 391L218 392L217 391M414 391L415 392L414 391M402 392L403 393L402 392z"/>
<path style="fill:#f2f6f9; stroke:none;" d="M415 392L415 400L416 400L415 392z"/>
<path style="fill:#f1e7aa; stroke:none;" d="M57 394L58 395L57 394M393 397L394 398L393 397M363 399L364 400L363 399M262 400L263 401L262 400M391 400L392 401L391 400M228 401L229 402L228 401M390 401L391 402L390 401M414 401L415 402L414 401z"/>
<path style="fill:#f2f6f9; stroke:none;" d="M414.333 402.667L414.667 403.333L414.333 402.667z"/>
<path style="fill:#f1e7aa; stroke:none;" d="M217 404L218 405L217 404M265 404L266 405L265 404M355 404L356 405L355 404z"/>
<path style="fill:#f2f6f9; stroke:none;" d="M413.333 404.667L413.667 405.333L413.333 404.667z"/>
<path style="fill:#f1e7aa; stroke:none;" d="M387 405L388 406L387 405M266 406L267 407L266 406M386 406L387 407L386 406z"/>
<path style="fill:#f2f6f9; stroke:none;" d="M412 406L413 407L412 406z"/>
<path style="fill:#f1e7aa; stroke:none;" d="M385 407L386 408L385 407M267 408L268 409L267 408M343 408L344 409L343 408z"/>
<path style="fill:#f2f6f9; stroke:none;" d="M411 408L412 409L411 408z"/>
<path style="fill:#f1e7aa; stroke:none;" d="M268 409L268 410L336 410L315 409L268 409z"/>
<path style="fill:#f2f6f9; stroke:none;" d="M410 409L411 410L410 409M409 411L410 412L409 411z"/>
<path style="fill:#f1e7aa; stroke:none;" d="M380 412L381 413L380 412M407 412L406 414L407 412z"/>
<path style="fill:#f2f6f9; stroke:none;" d="M408 412L409 413L408 412z"/>
<path style="fill:#f1e7aa; stroke:none;" d="M379 413L380 414L379 413z"/>
<path style="fill:#f2f6f9; stroke:none;" d="M407 413L408 414L407 413M406 414L407 415L406 414z"/>
<path style="fill:#f1e7aa; stroke:none;" d="M404 415L405 416L404 415z"/>
<path style="fill:#f2f6f9; stroke:none;" d="M405 415L406 416L405 415z"/>
<path style="fill:#f1e7aa; stroke:none;" d="M375 416L376 417L375 416z"/>
<path style="fill:#f2f6f9; stroke:none;" d="M403 416L404 417L403 416z"/>
<path style="fill:#f1e7aa; stroke:none;" d="M401 417L402 418L401 417z"/>
<path style="fill:#f2f6f9; stroke:none;" d="M402 417L403 418L402 417z"/>
<path style="fill:#f1e7aa; stroke:none;" d="M372 418L373 419L372 418z"/>
<path style="fill:#f2f6f9; stroke:none;" d="M400 418L401 419L400 418z"/>
<path style="fill:#f1e7aa; stroke:none;" d="M249 419L250 420L249 419M398 419L399 420L398 419z"/>
<path style="fill:#f2f6f9; stroke:none;" d="M399 419L400 420L399 419z"/>
<path style="fill:#f1e7aa; stroke:none;" d="M369 420L370 421L369 420z"/>
<path style="fill:#f2f6f9; stroke:none;" d="M397 420L398 421L397 420z"/>
<path style="fill:#f1e7aa; stroke:none;" d="M367 421L368 422L367 421z"/>
<path style="fill:#f2f6f9; stroke:none;" d="M395 421L396 422L395 421M393 422L394 423L393 422z"/>
<path style="fill:#f1e7aa; stroke:none;" d="M363 423L364 424L363 423z"/>
<path style="fill:#f2f6f9; stroke:none;" d="M391 423L392 424L391 423z"/>
<path style="fill:#f1e7aa; stroke:none;" d="M388 424L389 425L388 424z"/>
<path style="fill:#f2f6f9; stroke:none;" d="M389 424L390 425L389 424z"/>
<path style="fill:#f1e7aa; stroke:none;" d="M46 425L47 426L46 425M359 425L360 426L359 425M385 425L386 426L385 425z"/>
<path style="fill:#f2f6f9; stroke:none;" d="M386 425L387 426L386 425z"/>
<path style="fill:#f1e7aa; stroke:none;" d="M356 426L357 427L356 426M382 426L383 427L382 426z"/>
<path style="fill:#f2f6f9; stroke:none;" d="M383.667 426.333L384.333 426.667L383.667 426.333z"/>
<path style="fill:#f1e7aa; stroke:none;" d="M352 427L353 428L352 427M378 427L379 428L378 427z"/>
<path style="fill:#f2f6f9; stroke:none;" d="M379.667 427.333L380.333 427.667L379.667 427.333z"/>
<path style="fill:#f1e7aa; stroke:none;" d="M348 428L349 429L348 428M375 428L376 429L375 428z"/>
<path style="fill:#f2f6f9; stroke:none;" d="M376.667 428.333L377.333 428.667L376.667 428.333z"/>
<path style="fill:#f1e7aa; stroke:none;" d="M344 429L345 430L344 429M370 429L371 430L370 429z"/>
<path style="fill:#f2f6f9; stroke:none;" d="M371 429L371 430L374 430L371 429z"/>
<path style="fill:#85b6e4; stroke:none;" d="M272 430L272 431L275 431L272 430z"/>
<path style="fill:#f1e7aa; stroke:none;" d="M275 430L276 431L275 430M330 430L331 431L330 430M364 430L365 431L364 430z"/>
<path style="fill:#f2f6f9; stroke:none;" d="M365 430L365 431L369 431L365 430M333 431L333 432L340 432L333 431z"/>
<path style="fill:#f1e7aa; stroke:none;" d="M340 431L340 432L343 432L340 431M352 431L352 432L355 432L352 431z"/>
<path style="fill:#f2f6f9; stroke:none;" d="M355 431L355 432L361 432L355 431z"/>
<path style="fill:#f1e7aa; stroke:none;" d="M54 442L55 443L54 442M245 443L246 444L245 443M58 446L59 447L58 446M66 451L67 452L66 451M230 453L231 454L230 453M127 454L127 455L131 455L127 454M156 454L156 455L161 455L156 454M162 454L162 455L224 455L204 454L162 454z"/>
</svg>
